<mxfile host="app.diagrams.net" modified="2021-07-29T01:18:35.925Z" agent="5.0 (Windows NT 10.0; Win64; x64) AppleWebKit/537.36 (KHTML, like Gecko) Chrome/92.0.4515.107 Safari/537.36" etag="X9H08-YVQdujTGRQUXah" version="14.9.3" type="github">
  <diagram id="zoOrj7K-wxvZIIzEtBzu" name="Page-1">
    <mxGraphModel dx="782" dy="436" grid="1" gridSize="10" guides="1" tooltips="1" connect="1" arrows="1" fold="1" page="1" pageScale="1" pageWidth="850" pageHeight="1100" math="0" shadow="0">
      <root>
        <mxCell id="0" />
        <mxCell id="1" parent="0" />
        <mxCell id="ocIA96SOryqpCFX2WwY--1" value="" style="ellipse;whiteSpace=wrap;html=1;aspect=fixed;fillColor=#a20025;strokeColor=#6F0000;fontColor=#ffffff;" vertex="1" parent="1">
          <mxGeometry x="80" y="120" width="50" height="50" as="geometry" />
        </mxCell>
        <mxCell id="ocIA96SOryqpCFX2WwY--2" value="Customer" style="text;html=1;strokeColor=none;fillColor=none;align=center;verticalAlign=middle;whiteSpace=wrap;rounded=0;" vertex="1" parent="1">
          <mxGeometry x="90" y="180" width="40" height="20" as="geometry" />
        </mxCell>
        <mxCell id="ocIA96SOryqpCFX2WwY--4" value="" style="rounded=1;whiteSpace=wrap;html=1;fillColor=#e3c800;strokeColor=#B09500;fontColor=#000000;" vertex="1" parent="1">
          <mxGeometry x="290" y="120" width="120" height="60" as="geometry" />
        </mxCell>
        <mxCell id="ocIA96SOryqpCFX2WwY--5" value="Select Item" style="text;html=1;strokeColor=none;fillColor=none;align=center;verticalAlign=middle;whiteSpace=wrap;rounded=0;" vertex="1" parent="1">
          <mxGeometry x="310" y="140" width="90" height="20" as="geometry" />
        </mxCell>
        <mxCell id="ocIA96SOryqpCFX2WwY--6" value="&lt;b&gt;&lt;font style=&quot;font-size: 16px&quot;&gt;Customer&lt;/font&gt;&lt;/b&gt;" style="text;html=1;strokeColor=none;fillColor=none;align=center;verticalAlign=middle;whiteSpace=wrap;rounded=0;" vertex="1" parent="1">
          <mxGeometry x="85" y="70" width="40" height="20" as="geometry" />
        </mxCell>
        <mxCell id="ocIA96SOryqpCFX2WwY--7" value="&lt;b&gt;&lt;font style=&quot;font-size: 16px&quot;&gt;Order Item Form&lt;/font&gt;&lt;/b&gt;" style="text;html=1;strokeColor=none;fillColor=none;align=center;verticalAlign=middle;whiteSpace=wrap;rounded=0;" vertex="1" parent="1">
          <mxGeometry x="270" y="70" width="160" height="20" as="geometry" />
        </mxCell>
        <mxCell id="ocIA96SOryqpCFX2WwY--8" value="" style="rounded=1;whiteSpace=wrap;html=1;fillColor=#e3c800;strokeColor=#B09500;fontColor=#000000;" vertex="1" parent="1">
          <mxGeometry x="290" y="240" width="120" height="60" as="geometry" />
        </mxCell>
        <mxCell id="ocIA96SOryqpCFX2WwY--9" value="Select Quantity" style="text;html=1;strokeColor=none;fillColor=none;align=center;verticalAlign=middle;whiteSpace=wrap;rounded=0;" vertex="1" parent="1">
          <mxGeometry x="305" y="260" width="90" height="20" as="geometry" />
        </mxCell>
        <mxCell id="ocIA96SOryqpCFX2WwY--10" value="" style="rhombus;whiteSpace=wrap;html=1;fillColor=#6a00ff;strokeColor=#3700CC;fontColor=#ffffff;" vertex="1" parent="1">
          <mxGeometry x="305" y="350" width="80" height="80" as="geometry" />
        </mxCell>
        <mxCell id="ocIA96SOryqpCFX2WwY--11" value="" style="rounded=1;whiteSpace=wrap;html=1;fillColor=#e3c800;strokeColor=#B09500;fontColor=#000000;" vertex="1" parent="1">
          <mxGeometry x="480" y="360" width="120" height="60" as="geometry" />
        </mxCell>
        <mxCell id="ocIA96SOryqpCFX2WwY--12" value="Out of Stock" style="text;html=1;strokeColor=none;fillColor=none;align=center;verticalAlign=middle;whiteSpace=wrap;rounded=0;" vertex="1" parent="1">
          <mxGeometry x="495" y="380" width="90" height="20" as="geometry" />
        </mxCell>
        <mxCell id="ocIA96SOryqpCFX2WwY--13" value="&lt;b&gt;&lt;font style=&quot;font-size: 18px&quot;&gt;Error Form&lt;/font&gt;&lt;/b&gt;" style="text;html=1;strokeColor=none;fillColor=none;align=center;verticalAlign=middle;whiteSpace=wrap;rounded=0;" vertex="1" parent="1">
          <mxGeometry x="520" y="80" width="140" height="20" as="geometry" />
        </mxCell>
        <mxCell id="ocIA96SOryqpCFX2WwY--14" value="Out of Stock" style="text;html=1;strokeColor=none;fillColor=none;align=center;verticalAlign=middle;whiteSpace=wrap;rounded=0;" vertex="1" parent="1">
          <mxGeometry x="425" y="320" width="90" height="20" as="geometry" />
        </mxCell>
        <mxCell id="ocIA96SOryqpCFX2WwY--15" value="" style="rounded=1;whiteSpace=wrap;html=1;fillColor=#e3c800;strokeColor=#B09500;fontColor=#000000;" vertex="1" parent="1">
          <mxGeometry x="290" y="480" width="120" height="60" as="geometry" />
        </mxCell>
        <mxCell id="ocIA96SOryqpCFX2WwY--16" value="Enter Special Instructions" style="text;html=1;strokeColor=none;fillColor=none;align=center;verticalAlign=middle;whiteSpace=wrap;rounded=0;" vertex="1" parent="1">
          <mxGeometry x="305" y="500" width="90" height="20" as="geometry" />
        </mxCell>
        <mxCell id="ocIA96SOryqpCFX2WwY--18" value="" style="rounded=1;whiteSpace=wrap;html=1;fillColor=#e3c800;strokeColor=#B09500;fontColor=#000000;" vertex="1" parent="1">
          <mxGeometry x="285" y="600" width="120" height="60" as="geometry" />
        </mxCell>
        <mxCell id="ocIA96SOryqpCFX2WwY--19" value="Calculate Total Item" style="text;html=1;strokeColor=none;fillColor=none;align=center;verticalAlign=middle;whiteSpace=wrap;rounded=0;" vertex="1" parent="1">
          <mxGeometry x="295" y="620" width="90" height="20" as="geometry" />
        </mxCell>
        <mxCell id="ocIA96SOryqpCFX2WwY--21" value="" style="ellipse;whiteSpace=wrap;html=1;aspect=fixed;fillColor=#a20025;strokeColor=#6F0000;fontColor=#ffffff;" vertex="1" parent="1">
          <mxGeometry x="320" y="710" width="50" height="50" as="geometry" />
        </mxCell>
        <mxCell id="ocIA96SOryqpCFX2WwY--22" value="" style="endArrow=classic;html=1;" edge="1" parent="1">
          <mxGeometry width="50" height="50" relative="1" as="geometry">
            <mxPoint x="130" y="144.5" as="sourcePoint" />
            <mxPoint x="290" y="145" as="targetPoint" />
          </mxGeometry>
        </mxCell>
        <mxCell id="ocIA96SOryqpCFX2WwY--23" value="" style="endArrow=classic;html=1;" edge="1" parent="1">
          <mxGeometry width="50" height="50" relative="1" as="geometry">
            <mxPoint x="349.5" y="300" as="sourcePoint" />
            <mxPoint x="349.5" y="350" as="targetPoint" />
          </mxGeometry>
        </mxCell>
        <mxCell id="ocIA96SOryqpCFX2WwY--24" value="" style="endArrow=classic;html=1;" edge="1" parent="1">
          <mxGeometry width="50" height="50" relative="1" as="geometry">
            <mxPoint x="349.5" y="190" as="sourcePoint" />
            <mxPoint x="349.5" y="240" as="targetPoint" />
          </mxGeometry>
        </mxCell>
        <mxCell id="ocIA96SOryqpCFX2WwY--25" value="" style="endArrow=classic;html=1;" edge="1" parent="1">
          <mxGeometry width="50" height="50" relative="1" as="geometry">
            <mxPoint x="344.5" y="430" as="sourcePoint" />
            <mxPoint x="344.5" y="480" as="targetPoint" />
          </mxGeometry>
        </mxCell>
        <mxCell id="ocIA96SOryqpCFX2WwY--26" value="" style="endArrow=classic;html=1;" edge="1" parent="1">
          <mxGeometry width="50" height="50" relative="1" as="geometry">
            <mxPoint x="344.5" y="540" as="sourcePoint" />
            <mxPoint x="344.5" y="590" as="targetPoint" />
          </mxGeometry>
        </mxCell>
        <mxCell id="ocIA96SOryqpCFX2WwY--27" value="" style="endArrow=classic;html=1;" edge="1" parent="1">
          <mxGeometry width="50" height="50" relative="1" as="geometry">
            <mxPoint x="344.5" y="660" as="sourcePoint" />
            <mxPoint x="344.5" y="710" as="targetPoint" />
          </mxGeometry>
        </mxCell>
        <mxCell id="ocIA96SOryqpCFX2WwY--28" value="" style="endArrow=classic;html=1;entryX=0;entryY=0.5;entryDx=0;entryDy=0;" edge="1" parent="1" target="ocIA96SOryqpCFX2WwY--11">
          <mxGeometry width="50" height="50" relative="1" as="geometry">
            <mxPoint x="385" y="389.5" as="sourcePoint" />
            <mxPoint x="450.5" y="389.5" as="targetPoint" />
          </mxGeometry>
        </mxCell>
      </root>
    </mxGraphModel>
  </diagram>
</mxfile>
